<svg width="800" height="400" viewBox="0 0 800 400" xmlns="http://www.w3.org/2000/svg"><defs><pattern id="satori_pattern_id_1" x="0" y="0" width="0.075" height="0.15" patternUnits="objectBoundingBox"><radialGradient id="satori_radial_id_1"><stop offset="0" stop-color="lightgray"/><stop offset="0.02" stop-color="lightgray"/><stop offset="0" stop-color="transparent"/><stop offset="1" stop-color="transparent"/></radialGradient><mask id="satori_mask_id_1"><rect x="0" y="0" width="60" height="60" fill="#fff"/></mask><circle cx="45" cy="45" width="60" height="60" r="63.63961030678928" fill="url(#satori_radial_id_1)" mask="url(#satori_mask_id_1)"/></pattern><pattern id="satori_pattern_id_0" x="0" y="0" width="0.075" height="0.15" patternUnits="objectBoundingBox"><radialGradient id="satori_radial_id_0"><stop offset="0" stop-color="lightgray"/><stop offset="0.02" stop-color="lightgray"/><stop offset="0" stop-color="transparent"/><stop offset="1" stop-color="transparent"/></radialGradient><mask id="satori_mask_id_0"><rect x="0" y="0" width="60" height="60" fill="#fff"/></mask><circle cx="15" cy="15" width="60" height="60" r="63.63961030678928" fill="url(#satori_radial_id_0)" mask="url(#satori_mask_id_0)"/></pattern></defs><path x="0" y="0" width="800" height="400" fill="#F9F9F9" d="M6,0 h788 a6,6 0 0 1 6,6 v388 a6,6 0 0 1 -6,6 h-788 a6,6 0 0 1 -6,-6 v-388 a6,6 0 0 1 6,-6"/><path x="0" y="0" width="800" height="400" fill="url(#satori_pattern_id_1)" d="M6,0 h788 a6,6 0 0 1 6,6 v388 a6,6 0 0 1 -6,6 h-788 a6,6 0 0 1 -6,-6 v-388 a6,6 0 0 1 6,-6"/><path x="0" y="0" width="800" height="400" fill="url(#satori_pattern_id_0)" d="M6,0 h788 a6,6 0 0 1 6,6 v388 a6,6 0 0 1 -6,6 h-788 a6,6 0 0 1 -6,-6 v-388 a6,6 0 0 1 6,-6"/><mask id="satori_ms-id-0-0" maskUnits="userSpaceOnUse"><rect x="0" y="0" width="800" height="400" fill="#fff"/><path x="199" y="164" width="402" height="36" fill="#000"  stroke-width="0" d="M205,164 h390 a6,6 0 0 1 6,6 v24 a6,6 0 0 1 -6,6 h-390 a6,6 0 0 1 -6,-6 v-24 a6,6 0 0 1 6,-6"/></mask><defs><filter id="satori_s-id-0-0" x="-0.9950248756218906%" y="-11.11111111111111%" width="101.99004975124377%" height="122.22222222222223%"><feGaussianBlur stdDeviation="2" result="b"/><feFlood flood-color="#CCCCCC" in="SourceGraphic" result="f"/><feComposite in="f" in2="b" operator="in"/></filter></defs><g mask="url(#satori_ms-id-0-0)" filter="url(#satori_s-id-0-0)" opacity="1"><path x="199" y="166" width="402" height="36" fill="#fff" stroke="#fff" stroke-width="0" d="M205,166 h390 a6,6 0 0 1 6,6 v24 a6,6 0 0 1 -6,6 h-390 a6,6 0 0 1 -6,-6 v-24 a6,6 0 0 1 6,-6"/></g><path x="199" y="164" width="402" height="36" fill="#f8aa66" d="M205,164 h390 a6,6 0 0 1 6,6 v24 a6,6 0 0 1 -6,6 h-390 a6,6 0 0 1 -6,-6 v-24 a6,6 0 0 1 6,-6"/><path fill="#121212" d="M217.4 169.2L206.7 169.2L206.7 163.1L235.4 163.1L235.4 169.2L224.7 169.2L224.7 198.0L217.4 198.0L217.4 169.2ZM241.5 207.9L241.5 207.9Q240.1 207.9 238.9 207.6Q237.7 207.4 236.9 207.1L236.9 207.1L238.5 201.7Q239.8 202.1 240.8 202.1Q241.9 202.1 242.6 201.6Q243.4 201.1 243.9 199.9L243.9 199.9L244.3 198.8L234.9 171.9L242.5 171.9L248.0 191.1L248.2 191.1L253.7 171.9L261.4 171.9L251.2 200.9Q250.5 203.0 249.2 204.6Q248.0 206.1 246.1 207.0Q244.2 207.9 241.5 207.9ZM272.4 207.9L265.1 207.9L265.1 171.9L272.3 171.9L272.3 176.3L272.6 176.3Q273.1 175.2 274.0 174.1Q274.9 173.0 276.4 172.3Q277.8 171.5 280.0 171.5L280.0 171.5Q282.9 171.5 285.3 173.0Q287.7 174.5 289.2 177.5Q290.6 180.5 290.6 185.0L290.6 185.0Q290.6 189.4 289.2 192.4Q287.8 195.4 285.4 196.9Q283 198.5 280.0 198.5L280.0 198.5Q277.9 198.5 276.4 197.8Q275.0 197.1 274.0 196.0Q273.1 194.9 272.6 193.8L272.6 193.8L272.4 193.8L272.4 207.9ZM272.2 184.9L272.2 184.9Q272.2 187.3 272.9 189.0Q273.5 190.8 274.7 191.7Q276.0 192.7 277.7 192.7L277.7 192.7Q279.5 192.7 280.7 191.7Q281.9 190.7 282.6 189.0Q283.2 187.2 283.2 184.9L283.2 184.9Q283.2 182.7 282.6 181.0Q282.0 179.2 280.7 178.3Q279.5 177.3 277.7 177.3L277.7 177.3Q275.9 177.3 274.7 178.2Q273.5 179.2 272.9 180.9Q272.2 182.6 272.2 184.9ZM307.3 198.5L307.3 198.5Q303.3 198.5 300.4 196.9Q297.5 195.2 296.0 192.1Q294.4 189.1 294.4 185.0L294.4 185.0Q294.4 181.0 296.0 177.9Q297.5 174.9 300.4 173.2Q303.3 171.5 307.3 171.5L307.3 171.5Q311.3 171.5 314.2 173.2Q317.0 174.9 318.6 177.9Q320.2 181.0 320.2 185.0L320.2 185.0Q320.2 189.1 318.6 192.1Q317.0 195.2 314.2 196.9Q311.3 198.5 307.3 198.5ZM307.3 192.9L307.3 192.9Q309.1 192.9 310.3 191.9Q311.6 190.9 312.2 189.1Q312.8 187.3 312.8 185.0L312.8 185.0Q312.8 182.7 312.2 180.9Q311.6 179.1 310.3 178.1Q309.1 177.1 307.3 177.1L307.3 177.1Q305.5 177.1 304.3 178.1Q303.0 179.1 302.4 180.9Q301.8 182.7 301.8 185.0L301.8 185.0Q301.8 187.3 302.4 189.1Q303.0 190.9 304.3 191.9Q305.5 192.9 307.3 192.9ZM336.7 208.4L336.7 208.4Q333.2 208.4 330.7 207.4Q328.2 206.5 326.7 204.8Q325.2 203.2 324.7 201.1L324.7 201.1L331.5 200.2Q331.8 201.0 332.4 201.7Q333.1 202.3 334.2 202.8Q335.3 203.2 336.9 203.2L336.9 203.2Q339.3 203.2 340.8 202.0Q342.3 200.9 342.3 198.2L342.3 198.2L342.3 193.4L342.0 193.4Q341.6 194.5 340.6 195.5Q339.6 196.4 338.1 197.0Q336.6 197.7 334.6 197.7L334.6 197.7Q331.6 197.7 329.2 196.3Q326.8 194.9 325.4 192.1Q323.9 189.2 323.9 184.9L323.9 184.9Q323.9 180.4 325.4 177.5Q326.8 174.5 329.3 173.0Q331.7 171.5 334.5 171.5L334.5 171.5Q336.7 171.5 338.2 172.3Q339.7 173.0 340.6 174.1Q341.5 175.2 342.0 176.3L342.0 176.3L342.3 176.3L342.3 171.9L349.5 171.9L349.5 198.3Q349.5 201.6 347.9 203.9Q346.2 206.1 343.3 207.3Q340.5 208.4 336.7 208.4ZM336.9 192.2L336.9 192.2Q338.6 192.2 339.8 191.3Q341.1 190.5 341.7 188.8Q342.4 187.2 342.4 184.9L342.4 184.9Q342.4 182.6 341.7 180.9Q341.1 179.2 339.8 178.2Q338.6 177.3 336.9 177.3L336.9 177.3Q335.1 177.3 333.8 178.3Q332.6 179.2 332.0 180.9Q331.4 182.6 331.4 184.9L331.4 184.9Q331.4 187.1 332.0 188.8Q332.6 190.4 333.9 191.3Q335.1 192.2 336.9 192.2ZM362.6 198.0L355.3 198.0L355.3 171.9L362.3 171.9L362.3 176.4L362.6 176.4Q363.3 174.0 365.0 172.7Q366.7 171.5 368.9 171.5L368.9 171.5Q369.5 171.5 370.1 171.5Q370.7 171.6 371.2 171.7L371.2 171.7L371.2 178.2Q370.7 178.0 369.8 177.9Q368.9 177.8 368.1 177.8L368.1 177.8Q366.5 177.8 365.3 178.5Q364.0 179.2 363.3 180.4Q362.6 181.6 362.6 183.2L362.6 183.2L362.6 198.0ZM381.7 198.5L381.7 198.5Q379.2 198.5 377.2 197.7Q375.2 196.8 374.1 195.0Q373.0 193.3 373.0 190.7L373.0 190.7Q373.0 188.5 373.8 187.1Q374.6 185.6 375.9 184.7Q377.3 183.8 379.1 183.3Q380.9 182.8 382.8 182.7L382.8 182.7Q385.1 182.4 386.5 182.2Q387.9 182.0 388.5 181.6Q389.1 181.1 389.1 180.3L389.1 180.3L389.1 180.2Q389.1 178.6 388.1 177.7Q387.1 176.8 385.3 176.8L385.3 176.8Q383.3 176.8 382.1 177.7Q381.0 178.5 380.6 179.8L380.6 179.8L373.9 179.3Q374.4 176.9 375.9 175.2Q377.4 173.4 379.8 172.5Q382.2 171.5 385.3 171.5L385.3 171.5Q387.5 171.5 389.5 172.0Q391.5 172.5 393.0 173.6Q394.6 174.7 395.5 176.4Q396.4 178.0 396.4 180.4L396.4 180.4L396.4 198.0L389.5 198.0L389.5 194.4L389.3 194.4Q388.7 195.6 387.6 196.6Q386.6 197.5 385.1 198.0Q383.6 198.5 381.7 198.5ZM383.7 193.5L383.7 193.5Q385.3 193.5 386.6 192.9Q387.8 192.2 388.5 191.1Q389.2 190.1 389.2 188.7L389.2 188.7L389.2 185.9Q388.9 186.1 388.3 186.3Q387.7 186.5 386.9 186.6Q386.2 186.8 385.5 186.9Q384.7 187.0 384.1 187.1L384.1 187.1Q382.9 187.3 381.9 187.7Q381.0 188.1 380.4 188.8Q379.9 189.5 379.9 190.5L379.9 190.5Q379.9 192.0 381.0 192.7Q382.1 193.5 383.7 193.5ZM409.3 207.9L402.0 207.9L402.0 171.9L409.2 171.9L409.2 176.3L409.5 176.3Q410.0 175.2 410.9 174.1Q411.8 173.0 413.3 172.3Q414.8 171.5 417.0 171.5L417.0 171.5Q419.8 171.5 422.3 173.0Q424.7 174.5 426.1 177.5Q427.6 180.5 427.6 185.0L427.6 185.0Q427.6 189.4 426.2 192.4Q424.8 195.4 422.4 196.9Q419.9 198.5 417.0 198.5L417.0 198.5Q414.8 198.5 413.4 197.8Q411.9 197.1 411.0 196.0Q410.0 194.9 409.5 193.8L409.5 193.8L409.3 193.8L409.3 207.9ZM409.2 184.9L409.2 184.9Q409.2 187.3 409.8 189.0Q410.4 190.8 411.7 191.7Q412.9 192.7 414.7 192.7L414.7 192.7Q416.4 192.7 417.7 191.7Q418.9 190.7 419.5 189.0Q420.2 187.2 420.2 184.9L420.2 184.9Q420.2 182.7 419.5 181.0Q418.9 179.2 417.7 178.3Q416.4 177.3 414.7 177.3L414.7 177.3Q412.9 177.3 411.7 178.2Q410.4 179.2 409.8 180.9Q409.2 182.6 409.2 184.9ZM439.7 182.9L439.7 182.9L439.7 198.0L432.4 198.0L432.4 163.1L439.5 163.1L439.5 176.5L439.8 176.5Q440.7 174.2 442.6 172.8Q444.6 171.5 447.6 171.5L447.6 171.5Q450.3 171.5 452.4 172.7Q454.4 173.9 455.5 176.1Q456.7 178.3 456.6 181.4L456.6 181.4L456.6 198.0L449.4 198.0L449.4 182.7Q449.4 180.2 448.2 178.9Q446.9 177.5 444.7 177.5L444.7 177.5Q443.2 177.5 442.1 178.2Q441.0 178.8 440.3 180.0Q439.7 181.2 439.7 182.9ZM465.9 207.9L465.9 207.9Q464.5 207.9 463.3 207.6Q462.1 207.4 461.3 207.1L461.3 207.1L463.0 201.7Q464.2 202.1 465.3 202.1Q466.3 202.1 467.1 201.6Q467.8 201.1 468.3 199.9L468.3 199.9L468.7 198.8L459.3 171.9L467.0 171.9L472.4 191.1L472.7 191.1L478.1 171.9L485.8 171.9L475.6 200.9Q474.9 203.0 473.7 204.6Q472.4 206.1 470.5 207.0Q468.6 207.9 465.9 207.9ZM492.1 198.5L492.1 198.5Q490.5 198.5 489.3 197.3Q488.1 196.1 488.1 194.4L488.1 194.4Q488.1 192.7 489.3 191.5Q490.5 190.3 492.1 190.3L492.1 190.3Q493.8 190.3 495.0 191.5Q496.2 192.7 496.2 194.4L496.2 194.4Q496.2 195.5 495.7 196.4Q495.1 197.4 494.2 197.9Q493.3 198.5 492.1 198.5ZM502.2 163.1L509.4 163.1L509.4 198.0L502.2 198.0L502.2 163.1ZM527.2 198.5L527.2 198.5Q523.1 198.5 520.2 196.9Q517.3 195.3 515.8 192.2Q514.2 189.2 514.2 185.1L514.2 185.1Q514.2 181.0 515.8 178.0Q517.3 174.9 520.2 173.2Q523.0 171.5 526.9 171.5L526.9 171.5Q529.5 171.5 531.7 172.3Q534.0 173.2 535.6 174.8Q537.3 176.5 538.3 179.0Q539.2 181.5 539.2 184.8L539.2 184.8L539.2 186.8L517.1 186.8L517.1 182.3L532.4 182.3Q532.4 180.7 531.7 179.5Q531.0 178.3 529.8 177.6Q528.6 176.9 527.0 176.9L527.0 176.9Q525.4 176.9 524.1 177.7Q522.8 178.5 522.1 179.7Q521.4 181.0 521.4 182.5L521.4 182.5L521.4 186.8Q521.4 188.8 522.1 190.2Q522.8 191.6 524.1 192.4Q525.5 193.1 527.3 193.1L527.3 193.1Q528.5 193.1 529.5 192.8Q530.5 192.4 531.2 191.8Q531.9 191.1 532.3 190.1L532.3 190.1L539.0 190.5Q538.5 193.0 537.0 194.8Q535.4 196.6 532.9 197.6Q530.4 198.5 527.2 198.5ZM565.7 179.3L565.7 179.3L559.1 179.7Q558.9 178.9 558.3 178.2Q557.8 177.5 556.9 177.1Q555.9 176.7 554.7 176.7L554.7 176.7Q553 176.7 551.8 177.4Q550.7 178.1 550.7 179.3L550.7 179.3Q550.7 180.2 551.4 180.8Q552.2 181.5 554.0 181.9L554.0 181.9L558.7 182.8Q562.6 183.6 564.4 185.4Q566.3 187.1 566.3 189.9L566.3 189.9Q566.3 192.5 564.8 194.4Q563.3 196.4 560.7 197.5Q558.1 198.5 554.7 198.5L554.7 198.5Q549.5 198.5 546.4 196.4Q543.3 194.2 542.8 190.5L542.8 190.5L549.9 190.1Q550.2 191.7 551.5 192.5Q552.7 193.3 554.7 193.3L554.7 193.3Q556.6 193.3 557.7 192.6Q558.9 191.8 558.9 190.7L558.9 190.7Q558.9 189.7 558.1 189.0Q557.3 188.4 555.6 188.0L555.6 188.0L551.0 187.1Q547.2 186.4 545.3 184.5Q543.5 182.6 543.5 179.7L543.5 179.7Q543.5 177.1 544.8 175.3Q546.2 173.5 548.7 172.5Q551.2 171.5 554.6 171.5L554.6 171.5Q559.5 171.5 562.4 173.6Q565.2 175.7 565.7 179.3ZM592.7 179.3L592.7 179.3L586.0 179.7Q585.9 178.9 585.3 178.2Q584.7 177.5 583.8 177.1Q582.9 176.7 581.7 176.7L581.7 176.7Q580.0 176.7 578.8 177.4Q577.6 178.1 577.6 179.3L577.6 179.3Q577.6 180.2 578.4 180.8Q579.1 181.5 581.0 181.9L581.0 181.9L585.7 182.8Q589.5 183.6 591.4 185.4Q593.3 187.1 593.3 189.9L593.3 189.9Q593.3 192.5 591.8 194.4Q590.3 196.4 587.6 197.5Q585.0 198.5 581.6 198.5L581.6 198.5Q576.4 198.5 573.3 196.4Q570.3 194.2 569.7 190.5L569.7 190.5L576.9 190.1Q577.2 191.7 578.4 192.5Q579.7 193.3 581.6 193.3L581.6 193.3Q583.5 193.3 584.7 192.6Q585.9 191.8 585.9 190.7L585.9 190.7Q585.9 189.7 585.1 189.0Q584.2 188.4 582.5 188.0L582.5 188.0L578.0 187.1Q574.2 186.4 572.3 184.5Q570.4 182.6 570.4 179.7L570.4 179.7Q570.4 177.1 571.8 175.3Q573.2 173.5 575.7 172.5Q578.2 171.5 581.5 171.5L581.5 171.5Q586.5 171.5 589.3 173.6Q592.2 175.7 592.7 179.3Z "/><path fill="black" d="M244.4 221.2L240.9 231.0L239.4 231.0L243.7 219.3L245.1 219.3L249.4 231.0L247.9 231.0L244.5 221.2L244.4 221.2ZM241.4 227.7L241.4 226.4L247.4 226.4L247.4 227.7L241.4 227.7Z M265.1 223.0L265.1 223.0L263.7 223.0Q263.6 222.4 263.2 221.9Q262.9 221.4 262.5 221.1Q262.1 220.8 261.5 220.7Q261.0 220.5 260.4 220.5L260.4 220.5Q259.4 220.5 258.5 221.0Q257.6 221.6 257.1 222.6Q256.6 223.6 256.6 225.2L256.6 225.2Q256.6 226.7 257.1 227.7Q257.6 228.7 258.5 229.3Q259.4 229.8 260.4 229.8L260.4 229.8Q261.0 229.8 261.5 229.7Q262.1 229.5 262.5 229.2Q262.9 228.9 263.2 228.4Q263.6 227.9 263.7 227.3L263.7 227.3L265.1 227.3Q264.9 228.2 264.5 228.9Q264.1 229.6 263.5 230.1Q262.8 230.6 262.1 230.9Q261.3 231.1 260.4 231.1L260.4 231.1Q258.9 231.1 257.8 230.4Q256.6 229.7 255.9 228.3Q255.3 227.0 255.3 225.2L255.3 225.2Q255.3 223.3 255.9 222.0Q256.6 220.6 257.8 219.9Q258.9 219.2 260.4 219.2L260.4 219.2Q261.3 219.2 262.1 219.4Q262.8 219.7 263.5 220.2Q264.1 220.7 264.5 221.4Q264.9 222.1 265.1 223.0ZM275.1 222.2L273.7 222.2Q273.6 221.4 272.9 220.9Q272.2 220.4 271.1 220.4L271.1 220.4Q270.3 220.4 269.8 220.7Q269.2 220.9 268.9 221.4Q268.5 221.8 268.5 222.4L268.5 222.4Q268.5 222.8 268.8 223.2Q269.0 223.5 269.3 223.7Q269.7 223.9 270.1 224.1Q270.5 224.2 270.8 224.3L270.8 224.3L272.0 224.6Q272.4 224.7 273.0 224.9Q273.6 225.2 274.1 225.5Q274.6 225.9 274.9 226.4Q275.3 227.0 275.3 227.8L275.3 227.8Q275.3 228.8 274.8 229.5Q274.3 230.3 273.3 230.7Q272.4 231.2 271.0 231.2L271.0 231.2Q269.8 231.2 268.9 230.8Q268.0 230.4 267.5 229.7Q266.9 228.9 266.9 228.0L266.9 228.0L268.3 228.0Q268.4 228.6 268.8 229.1Q269.2 229.5 269.8 229.7Q270.4 229.9 271.0 229.9L271.0 229.9Q271.9 229.9 272.5 229.6Q273.1 229.4 273.5 228.9Q273.9 228.4 273.9 227.8L273.9 227.8Q273.9 227.2 273.6 226.9Q273.2 226.5 272.7 226.3Q272.2 226.0 271.6 225.9L271.6 225.9L270.1 225.5Q268.8 225.1 268.0 224.3Q267.2 223.6 267.2 222.4L267.2 222.4Q267.2 221.5 267.7 220.7Q268.2 220.0 269.1 219.6Q270.0 219.2 271.2 219.2L271.2 219.2Q272.3 219.2 273.2 219.6Q274.0 220.0 274.5 220.7Q275.1 221.4 275.1 222.2L275.1 222.2ZM285.3 222.2L283.9 222.2Q283.8 221.4 283.1 220.9Q282.4 220.4 281.3 220.4L281.3 220.4Q280.5 220.4 280.0 220.7Q279.4 220.9 279.1 221.4Q278.7 221.8 278.7 222.4L278.7 222.4Q278.7 222.8 279.0 223.2Q279.2 223.5 279.6 223.7Q279.9 223.9 280.3 224.1Q280.7 224.2 281.0 224.3L281.0 224.3L282.2 224.6Q282.6 224.7 283.2 224.9Q283.8 225.2 284.3 225.5Q284.8 225.9 285.1 226.4Q285.5 227.0 285.5 227.8L285.5 227.8Q285.5 228.8 285.0 229.5Q284.5 230.3 283.5 230.7Q282.6 231.2 281.2 231.2L281.2 231.2Q280.0 231.2 279.1 230.8Q278.2 230.4 277.7 229.7Q277.1 228.9 277.1 228.0L277.1 228.0L278.5 228.0Q278.6 228.6 279.0 229.1Q279.4 229.5 280.0 229.7Q280.6 229.9 281.2 229.9L281.2 229.9Q282.1 229.9 282.7 229.6Q283.3 229.4 283.7 228.9Q284.1 228.4 284.1 227.8L284.1 227.8Q284.1 227.2 283.8 226.9Q283.4 226.5 282.9 226.3Q282.4 226.0 281.8 225.9L281.8 225.9L280.3 225.5Q279.0 225.1 278.2 224.3Q277.4 223.6 277.4 222.4L277.4 222.4Q277.4 221.5 277.9 220.7Q278.4 220.0 279.3 219.6Q280.2 219.2 281.4 219.2L281.4 219.2Q282.5 219.2 283.4 219.6Q284.2 220.0 284.8 220.7Q285.3 221.4 285.3 222.2L285.3 222.2Z M291.3 222.2L296.0 222.2L296.0 223.4L291.3 223.4L291.3 222.2ZM294.0 231.0L292.7 231.0L292.7 221.0Q292.7 220.3 293.0 219.8Q293.4 219.3 293.9 219.0Q294.5 218.8 295.1 218.8L295.1 218.8Q295.6 218.8 295.9 218.9Q296.3 219.0 296.4 219.0L296.4 219.0L296.0 220.2Q295.9 220.1 295.7 220.1Q295.6 220.0 295.3 220.0L295.3 220.0Q294.6 220.0 294.3 220.4Q294.0 220.7 294.0 221.4L294.0 221.4L294.0 231.0ZM299.2 231.0L297.9 231.0L297.9 222.2L299.2 222.2L299.2 231.0ZM298.5 220.8L298.5 220.8Q298.2 220.8 297.9 220.5Q297.6 220.3 297.6 219.9L297.6 219.9Q297.6 219.5 297.9 219.2Q298.2 219.0 298.5 219.0L298.5 219.0Q298.9 219.0 299.2 219.2Q299.5 219.5 299.5 219.9L299.5 219.9Q299.5 220.3 299.2 220.5Q298.9 220.8 298.5 220.8ZM301.7 219.3L303 219.3L303 231.0L301.7 231.0L301.7 219.3ZM309.1 231.2L309.1 231.2Q307.9 231.2 306.9 230.6Q306.0 230.0 305.5 229.0Q305.0 228.0 305.0 226.7L305.0 226.7Q305.0 225.3 305.5 224.3Q306.0 223.3 306.9 222.7Q307.8 222.1 309.0 222.1L309.0 222.1Q309.7 222.1 310.3 222.4Q311.0 222.6 311.5 223.1Q312.1 223.6 312.4 224.4Q312.7 225.3 312.7 226.5L312.7 226.5L312.7 227.1L306 227.1L306 225.9L311.4 225.9Q311.4 225.2 311.1 224.6Q310.8 224.0 310.2 223.7Q309.7 223.3 309.0 223.3L309.0 223.3Q308.2 223.3 307.6 223.7Q307.0 224.1 306.7 224.8Q306.4 225.4 306.4 226.1L306.4 226.1L306.4 226.9Q306.4 227.9 306.7 228.6Q307.1 229.2 307.7 229.6Q308.3 230.0 309.1 230.0L309.1 230.0Q309.6 230.0 310.1 229.8Q310.5 229.7 310.8 229.3Q311.1 229.0 311.3 228.6L311.3 228.6L312.6 229.0Q312.4 229.6 311.9 230.1Q311.4 230.6 310.7 230.9Q310 231.2 309.1 231.2Z M320.6 231.0L319.3 231.0L319.3 222.2L320.6 222.2L320.6 223.6L320.7 223.6Q321.0 222.9 321.6 222.5Q322.2 222.1 323.0 222.1L323.0 222.1Q323.9 222.1 324.5 222.5Q325.0 222.9 325.4 223.6L325.4 223.6L325.5 223.6Q325.8 222.9 326.5 222.5Q327.1 222.1 328.1 222.1L328.1 222.1Q329.2 222.1 330.0 222.9Q330.7 223.6 330.7 225.1L330.7 225.1L330.7 231.0L329.4 231.0L329.4 225.1Q329.4 224.2 328.9 223.8Q328.3 223.3 327.6 223.3L327.6 223.3Q326.7 223.3 326.2 223.9Q325.7 224.4 325.7 225.3L325.7 225.3L325.7 231.0L324.3 231.0L324.3 225.0Q324.3 224.3 323.8 223.8Q323.4 223.3 322.6 223.3L322.6 223.3Q322.1 223.3 321.6 223.6Q321.2 223.9 320.9 224.4Q320.6 224.9 320.6 225.5L320.6 225.5L320.6 231.0ZM335.8 231.2L335.8 231.2Q334.9 231.2 334.2 230.9Q333.6 230.5 333.2 230.0Q332.8 229.4 332.8 228.5L332.8 228.5Q332.8 227.7 333.1 227.3Q333.4 226.8 333.9 226.5Q334.4 226.3 335.0 226.1Q335.6 226.0 336.2 225.9L336.2 225.9Q337.0 225.8 337.5 225.8Q337.9 225.7 338.2 225.6Q338.4 225.5 338.4 225.1L338.4 225.1L338.4 225.1Q338.4 224.2 338.0 223.8Q337.5 223.3 336.6 223.3L336.6 223.3Q335.6 223.3 335.1 223.7Q334.5 224.2 334.3 224.6L334.3 224.6L333.0 224.2Q333.4 223.4 333.9 222.9Q334.5 222.5 335.2 222.3Q335.9 222.1 336.5 222.1L336.5 222.1Q336.9 222.1 337.5 222.2Q338.0 222.3 338.6 222.6Q339.1 222.9 339.4 223.6Q339.8 224.2 339.8 225.2L339.8 225.2L339.8 231.0L338.4 231.0L338.4 229.8L338.3 229.8Q338.2 230.1 337.9 230.4Q337.6 230.7 337.0 231.0Q336.5 231.2 335.8 231.2ZM336.0 230.0L336.0 230.0Q336.8 230.0 337.3 229.7Q337.8 229.4 338.1 228.9Q338.4 228.4 338.4 227.8L338.4 227.8L338.4 226.6Q338.3 226.7 338.0 226.8Q337.8 226.9 337.4 226.9Q337.0 227.0 336.7 227.0Q336.3 227.1 336.1 227.1L336.1 227.1Q335.6 227.2 335.1 227.3Q334.7 227.5 334.4 227.8Q334.1 228.1 334.1 228.6L334.1 228.6Q334.1 229.3 334.6 229.6Q335.2 230.0 336.0 230.0ZM345 226.4L343.5 227.8L343.4 226.1L343.7 226.1L347.5 222.2L349.2 222.2L345.1 226.4L345 226.4ZM343.5 231.0L342.2 231.0L342.2 219.3L343.5 219.3L343.5 231.0ZM349.5 231.0L347.8 231.0L344.3 226.7L345.3 225.7L349.5 231.0ZM354.2 231.2L354.2 231.2Q352.9 231.2 352.0 230.6Q351.1 230.0 350.6 229.0Q350.1 228.0 350.1 226.7L350.1 226.7Q350.1 225.3 350.6 224.3Q351.1 223.3 352.0 222.7Q352.9 222.1 354.1 222.1L354.1 222.1Q354.8 222.1 355.4 222.4Q356.1 222.6 356.6 223.1Q357.2 223.6 357.5 224.4Q357.8 225.3 357.8 226.5L357.8 226.5L357.8 227.1L351.1 227.1L351.1 225.9L356.5 225.9Q356.5 225.2 356.2 224.6Q355.9 224.0 355.3 223.7Q354.8 223.3 354.1 223.3L354.1 223.3Q353.3 223.3 352.7 223.7Q352.1 224.1 351.8 224.8Q351.5 225.4 351.5 226.1L351.5 226.1L351.5 226.9Q351.5 227.9 351.8 228.6Q352.2 229.2 352.8 229.6Q353.4 230.0 354.2 230.0L354.2 230.0Q354.7 230.0 355.2 229.8Q355.6 229.7 355.9 229.3Q356.2 229.0 356.4 228.6L356.4 228.6L357.7 229.0Q357.5 229.6 357.0 230.1Q356.5 230.6 355.8 230.9Q355.1 231.2 354.2 231.2ZM366.0 224.2L366.0 224.2L364.8 224.5Q364.7 224.2 364.5 224.0Q364.3 223.7 363.9 223.5Q363.5 223.3 363.0 223.3L363.0 223.3Q362.2 223.3 361.6 223.7Q361.1 224.0 361.1 224.6L361.1 224.6Q361.1 225.1 361.5 225.4Q361.8 225.7 362.6 225.9L362.6 225.9L363.9 226.2Q365.1 226.5 365.6 227.0Q366.2 227.6 366.2 228.5L366.2 228.5Q366.2 229.3 365.8 229.9Q365.3 230.5 364.6 230.8Q363.8 231.2 362.8 231.2L362.8 231.2Q361.5 231.2 360.6 230.6Q359.7 230.0 359.5 228.9L359.5 228.9L360.8 228.6Q360.9 229.3 361.4 229.6Q361.9 230.0 362.8 230.0L362.8 230.0Q363.7 230.0 364.3 229.6Q364.8 229.2 364.8 228.6L364.8 228.6Q364.8 228.2 364.5 227.8Q364.2 227.5 363.5 227.4L363.5 227.4L362.1 227.0Q360.9 226.8 360.3 226.2Q359.8 225.6 359.8 224.7L359.8 224.7Q359.8 223.9 360.2 223.4Q360.6 222.8 361.3 222.5Q362.0 222.1 363.0 222.1L363.0 222.1Q364.3 222.1 365.0 222.7Q365.7 223.3 366.0 224.2Z M372 222.2L376.5 222.2L376.5 223.4L372 223.4L372 222.2ZM373.3 228.8L373.3 220.2L374.7 220.2L374.7 228.5Q374.7 229.0 374.8 229.3Q375.0 229.6 375.3 229.7Q375.5 229.8 375.8 229.8L375.8 229.8Q376.0 229.8 376.2 229.8Q376.3 229.7 376.4 229.7L376.4 229.7L376.7 230.9Q376.5 231.0 376.3 231.0Q376.1 231.1 375.7 231.1L375.7 231.1Q375.1 231.1 374.6 230.8Q374.0 230.6 373.7 230.1Q373.3 229.6 373.3 228.8L373.3 228.8ZM380.1 225.7L380.1 225.7L380.1 231.0L378.7 231.0L378.7 219.3L380.1 219.3L380.1 223.6L380.2 223.6Q380.5 222.9 381.1 222.5Q381.7 222.1 382.8 222.1L382.8 222.1Q383.6 222.1 384.3 222.5Q385.0 222.8 385.4 223.6Q385.7 224.3 385.7 225.4L385.7 225.4L385.7 231.0L384.4 231.0L384.4 225.5Q384.4 224.5 383.8 223.9Q383.3 223.3 382.4 223.3L382.4 223.3Q381.7 223.3 381.2 223.6Q380.7 223.9 380.4 224.4Q380.1 225.0 380.1 225.7ZM391.8 231.2L391.8 231.2Q390.6 231.2 389.7 230.6Q388.8 230.0 388.3 229.0Q387.8 228.0 387.8 226.7L387.8 226.7Q387.8 225.3 388.3 224.3Q388.8 223.3 389.6 222.7Q390.5 222.1 391.7 222.1L391.7 222.1Q392.4 222.1 393.1 222.4Q393.7 222.6 394.3 223.1Q394.8 223.6 395.1 224.4Q395.5 225.3 395.5 226.5L395.5 226.5L395.5 227.1L388.7 227.1L388.7 225.9L394.1 225.9Q394.1 225.2 393.8 224.6Q393.5 224.0 393.0 223.7Q392.4 223.3 391.7 223.3L391.7 223.3Q390.9 223.3 390.3 223.7Q389.7 224.1 389.4 224.8Q389.1 225.4 389.1 226.1L389.1 226.1L389.1 226.9Q389.1 227.9 389.5 228.6Q389.8 229.2 390.4 229.6Q391.0 230.0 391.8 230.0L391.8 230.0Q392.4 230.0 392.8 229.8Q393.2 229.7 393.5 229.3Q393.9 229.0 394.0 228.6L394.0 228.6L395.3 229.0Q395.1 229.6 394.6 230.1Q394.1 230.6 393.4 230.9Q392.7 231.2 391.8 231.2Z M404.6 231.2L404.6 231.2Q403.7 231.2 403.1 230.9Q402.4 230.5 402.0 230.0Q401.6 229.4 401.6 228.5L401.6 228.5Q401.6 227.7 401.9 227.3Q402.2 226.8 402.7 226.5Q403.2 226.3 403.8 226.1Q404.4 226.0 405.0 225.9L405.0 225.9Q405.8 225.8 406.3 225.8Q406.8 225.7 407.0 225.6Q407.2 225.5 407.2 225.1L407.2 225.1L407.2 225.1Q407.2 224.2 406.8 223.8Q406.3 223.3 405.4 223.3L405.4 223.3Q404.4 223.3 403.9 223.7Q403.3 224.2 403.1 224.6L403.1 224.6L401.8 224.2Q402.2 223.4 402.8 222.9Q403.3 222.5 404.0 222.3Q404.7 222.1 405.3 222.1L405.3 222.1Q405.8 222.1 406.3 222.2Q406.9 222.3 407.4 222.6Q407.9 222.9 408.2 223.6Q408.6 224.2 408.6 225.2L408.6 225.2L408.6 231.0L407.2 231.0L407.2 229.8L407.2 229.8Q407.0 230.1 406.7 230.4Q406.4 230.7 405.9 231.0Q405.3 231.2 404.6 231.2ZM404.8 230.0L404.8 230.0Q405.6 230.0 406.1 229.7Q406.7 229.4 406.9 228.9Q407.2 228.4 407.2 227.8L407.2 227.8L407.2 226.6Q407.1 226.7 406.9 226.8Q406.6 226.9 406.2 226.9Q405.8 227.0 405.5 227.0Q405.1 227.1 404.9 227.1L404.9 227.1Q404.4 227.2 403.9 227.3Q403.5 227.5 403.2 227.8Q402.9 228.1 402.9 228.6L402.9 228.6Q402.9 229.3 403.5 229.6Q404.0 230.0 404.8 230.0ZM412.4 231.0L411.0 231.0L411.0 222.2L412.3 222.2L412.3 223.6L412.4 223.6Q412.6 222.9 413.3 222.5Q413.9 222.1 414.7 222.1L414.7 222.1Q414.8 222.1 415.1 222.1Q415.3 222.1 415.4 222.1L415.4 222.1L415.4 223.5Q415.3 223.5 415.1 223.4Q414.8 223.4 414.6 223.4L414.6 223.4Q413.9 223.4 413.4 223.7Q412.9 223.9 412.7 224.4Q412.4 224.9 412.4 225.5L412.4 225.5L412.4 231.0ZM416.8 222.2L421.3 222.2L421.3 223.4L416.8 223.4L416.8 222.2ZM418.1 228.8L418.1 220.2L419.5 220.2L419.5 228.5Q419.5 229.0 419.6 229.3Q419.8 229.6 420.1 229.7Q420.3 229.8 420.6 229.8L420.6 229.8Q420.8 229.8 421.0 229.8Q421.1 229.7 421.2 229.7L421.2 229.7L421.5 230.9Q421.3 231.0 421.1 231.0Q420.9 231.1 420.5 231.1L420.5 231.1Q419.9 231.1 419.4 230.8Q418.8 230.6 418.5 230.1Q418.1 229.6 418.1 228.8L418.1 228.8ZM424.7 231.0L423.3 231.0L423.3 222.2L424.7 222.2L424.7 231.0ZM424.0 220.8L424.0 220.8Q423.6 220.8 423.3 220.5Q423.1 220.3 423.1 219.9L423.1 219.9Q423.1 219.5 423.3 219.2Q423.6 219.0 424.0 219.0L424.0 219.0Q424.4 219.0 424.7 219.2Q425.0 219.5 425.0 219.9L425.0 219.9Q425.0 220.3 424.7 220.5Q424.4 220.8 424.0 220.8ZM430.7 231.2L430.7 231.2Q429.5 231.2 428.6 230.6Q427.7 230.0 427.2 229.0Q426.7 228.0 426.7 226.7L426.7 226.7Q426.7 225.3 427.2 224.3Q427.7 223.3 428.6 222.7Q429.5 222.1 430.7 222.1L430.7 222.1Q431.6 222.1 432.3 222.5Q433.1 222.8 433.5 223.4Q434.0 224.0 434.1 224.9L434.1 224.9L432.8 224.9Q432.6 224.3 432.1 223.8Q431.6 223.3 430.7 223.3L430.7 223.3Q429.9 223.3 429.3 223.7Q428.7 224.2 428.4 224.9Q428.1 225.6 428.1 226.6L428.1 226.6Q428.1 227.6 428.4 228.4Q428.7 229.1 429.3 229.5Q429.9 230.0 430.7 230.0L430.7 230.0Q431.2 230.0 431.6 229.8Q432.1 229.6 432.4 229.2Q432.6 228.9 432.8 228.4L432.8 228.4L434.1 228.4Q434.0 229.2 433.6 229.8Q433.1 230.4 432.4 230.8Q431.6 231.2 430.7 231.2ZM436.1 219.3L437.4 219.3L437.4 231.0L436.1 231.0L436.1 219.3ZM443.5 231.2L443.5 231.2Q442.3 231.2 441.3 230.6Q440.4 230.0 439.9 229.0Q439.5 228.0 439.5 226.7L439.5 226.7Q439.5 225.3 439.9 224.3Q440.4 223.3 441.3 222.7Q442.2 222.1 443.4 222.1L443.4 222.1Q444.1 222.1 444.7 222.4Q445.4 222.6 445.9 223.1Q446.5 223.6 446.8 224.4Q447.1 225.3 447.1 226.5L447.1 226.5L447.1 227.1L440.4 227.1L440.4 225.9L445.8 225.9Q445.8 225.2 445.5 224.6Q445.2 224.0 444.7 223.7Q444.1 223.3 443.4 223.3L443.4 223.3Q442.6 223.3 442.0 223.7Q441.4 224.1 441.1 224.8Q440.8 225.4 440.8 226.1L440.8 226.1L440.8 226.9Q440.8 227.9 441.1 228.6Q441.5 229.2 442.1 229.6Q442.7 230.0 443.5 230.0L443.5 230.0Q444.1 230.0 444.5 229.8Q444.9 229.7 445.2 229.3Q445.5 229.0 445.7 228.6L445.7 228.6L447 229.0Q446.8 229.6 446.3 230.1Q445.8 230.6 445.1 230.9Q444.4 231.2 443.5 231.2Z M457.3 231.2L457.3 231.2Q456.1 231.2 455.2 230.6Q454.3 230.0 453.8 229.0Q453.3 228.0 453.3 226.7L453.3 226.7Q453.3 225.3 453.8 224.3Q454.3 223.3 455.1 222.7Q456.0 222.1 457.2 222.1L457.2 222.1Q457.9 222.1 458.6 222.4Q459.2 222.6 459.8 223.1Q460.3 223.6 460.6 224.4Q461.0 225.3 461.0 226.5L461.0 226.5L461.0 227.1L454.2 227.1L454.2 225.9L459.6 225.9Q459.6 225.2 459.3 224.6Q459.0 224.0 458.5 223.7Q457.9 223.3 457.2 223.3L457.2 223.3Q456.4 223.3 455.8 223.7Q455.2 224.1 454.9 224.8Q454.6 225.4 454.6 226.1L454.6 226.1L454.6 226.9Q454.6 227.9 455.0 228.6Q455.3 229.2 455.9 229.6Q456.5 230.0 457.3 230.0L457.3 230.0Q457.9 230.0 458.3 229.8Q458.7 229.7 459.0 229.3Q459.4 229.0 459.5 228.6L459.5 228.6L460.8 229.0Q460.6 229.6 460.1 230.1Q459.6 230.6 458.9 230.9Q458.2 231.2 457.3 231.2ZM465.6 231.2L465.6 231.2Q464.7 231.2 464.1 230.9Q463.4 230.5 463.0 230.0Q462.6 229.4 462.6 228.5L462.6 228.5Q462.6 227.7 462.9 227.3Q463.2 226.8 463.7 226.5Q464.2 226.3 464.8 226.1Q465.4 226.0 466.0 225.9L466.0 225.9Q466.8 225.8 467.3 225.8Q467.8 225.7 468.0 225.6Q468.2 225.5 468.2 225.1L468.2 225.1L468.2 225.1Q468.2 224.2 467.8 223.8Q467.3 223.3 466.4 223.3L466.4 223.3Q465.4 223.3 464.9 223.7Q464.3 224.2 464.1 224.6L464.1 224.6L462.8 224.2Q463.2 223.4 463.8 222.9Q464.3 222.5 465.0 222.3Q465.7 222.1 466.3 222.1L466.3 222.1Q466.8 222.1 467.3 222.2Q467.9 222.3 468.4 222.6Q468.9 222.9 469.2 223.6Q469.6 224.2 469.6 225.2L469.6 225.2L469.6 231.0L468.2 231.0L468.2 229.8L468.2 229.8Q468.0 230.1 467.7 230.4Q467.4 230.7 466.9 231.0Q466.3 231.2 465.6 231.2ZM465.8 230.0L465.8 230.0Q466.6 230.0 467.1 229.7Q467.7 229.4 467.9 228.9Q468.2 228.4 468.2 227.8L468.2 227.8L468.2 226.6Q468.1 226.7 467.9 226.8Q467.6 226.9 467.2 226.9Q466.8 227.0 466.5 227.0Q466.1 227.1 465.9 227.1L465.9 227.1Q465.4 227.2 464.9 227.3Q464.5 227.5 464.2 227.8Q463.9 228.1 463.9 228.6L463.9 228.6Q463.9 229.3 464.5 229.6Q465.0 230.0 465.8 230.0ZM478.2 224.2L478.2 224.2L477 224.5Q476.9 224.2 476.7 224.0Q476.4 223.7 476.1 223.5Q475.7 223.3 475.1 223.3L475.1 223.3Q474.3 223.3 473.8 223.7Q473.3 224.0 473.3 224.6L473.3 224.6Q473.3 225.1 473.6 225.4Q474.0 225.7 474.8 225.9L474.8 225.9L476.0 226.2Q477.2 226.5 477.8 227.0Q478.4 227.6 478.4 228.5L478.4 228.5Q478.4 229.3 477.9 229.9Q477.5 230.5 476.7 230.8Q476.0 231.2 475.0 231.2L475.0 231.2Q473.6 231.2 472.7 230.6Q471.9 230.0 471.6 228.9L471.6 228.9L472.9 228.6Q473.1 229.3 473.6 229.6Q474.1 230.0 474.9 230.0L474.9 230.0Q475.9 230.0 476.4 229.6Q477.0 229.2 477.0 228.6L477.0 228.6Q477.0 228.2 476.7 227.8Q476.3 227.5 475.7 227.4L475.7 227.4L474.2 227.0Q473.0 226.8 472.5 226.2Q471.9 225.6 471.9 224.7L471.9 224.7Q471.9 223.9 472.3 223.4Q472.7 222.8 473.5 222.5Q474.2 222.1 475.1 222.1L475.1 222.1Q476.4 222.1 477.2 222.7Q477.9 223.3 478.2 224.2ZM481.7 231.0L480.4 231.0L480.4 222.2L481.7 222.2L481.7 231.0ZM481.1 220.8L481.1 220.8Q480.7 220.8 480.4 220.5Q480.1 220.3 480.1 219.9L480.1 219.9Q480.1 219.5 480.4 219.2Q480.7 219.0 481.1 219.0L481.1 219.0Q481.5 219.0 481.7 219.2Q482.0 219.5 482.0 219.9L482.0 219.9Q482.0 220.3 481.7 220.5Q481.5 220.8 481.1 220.8ZM487.8 231.2L487.8 231.2Q486.6 231.2 485.7 230.6Q484.8 230.0 484.3 229.0Q483.8 228.0 483.8 226.7L483.8 226.7Q483.8 225.3 484.3 224.3Q484.8 223.3 485.6 222.7Q486.5 222.1 487.7 222.1L487.7 222.1Q488.4 222.1 489.1 222.4Q489.7 222.6 490.3 223.1Q490.8 223.6 491.1 224.4Q491.5 225.3 491.5 226.5L491.5 226.5L491.5 227.1L484.7 227.1L484.7 225.9L490.1 225.9Q490.1 225.2 489.8 224.6Q489.5 224.0 489.0 223.7Q488.4 223.3 487.7 223.3L487.7 223.3Q486.9 223.3 486.3 223.7Q485.7 224.1 485.4 224.8Q485.1 225.4 485.1 226.1L485.1 226.1L485.1 226.9Q485.1 227.9 485.5 228.6Q485.8 229.2 486.4 229.6Q487.0 230.0 487.8 230.0L487.8 230.0Q488.4 230.0 488.8 229.8Q489.2 229.7 489.5 229.3Q489.9 229.0 490.0 228.6L490.0 228.6L491.3 229.0Q491.1 229.6 490.6 230.1Q490.1 230.6 489.4 230.9Q488.7 231.2 487.8 231.2ZM494.8 231.0L493.5 231.0L493.5 222.2L494.8 222.2L494.8 223.6L494.9 223.6Q495.1 222.9 495.8 222.5Q496.4 222.1 497.2 222.1L497.2 222.1Q497.3 222.1 497.5 222.1Q497.8 222.1 497.9 222.1L497.9 222.1L497.9 223.5Q497.8 223.5 497.6 223.4Q497.3 223.4 497.0 223.4L497.0 223.4Q496.4 223.4 495.9 223.7Q495.4 223.9 495.1 224.4Q494.8 224.9 494.8 225.5L494.8 225.5L494.8 231.0Z M503.2 222.2L507.8 222.2L507.8 223.4L503.2 223.4L503.2 222.2ZM504.5 228.8L504.5 220.2L505.9 220.2L505.9 228.5Q505.9 229.0 506.1 229.3Q506.2 229.6 506.5 229.7Q506.8 229.8 507.0 229.8L507.0 229.8Q507.3 229.8 507.4 229.8Q507.6 229.7 507.6 229.7L507.6 229.7L507.9 230.9Q507.8 231.0 507.5 231.0Q507.3 231.1 506.9 231.1L506.9 231.1Q506.3 231.1 505.8 230.8Q505.3 230.6 504.9 230.1Q504.5 229.6 504.5 228.8L504.5 228.8ZM513.2 231.2L513.2 231.2Q512.0 231.2 511.2 230.6Q510.3 230.0 509.8 229.0Q509.3 228.0 509.3 226.7L509.3 226.7Q509.3 225.3 509.8 224.3Q510.3 223.3 511.2 222.7Q512.0 222.1 513.2 222.1L513.2 222.1Q514.4 222.1 515.3 222.7Q516.2 223.3 516.7 224.3Q517.2 225.3 517.2 226.7L517.2 226.7Q517.2 228.0 516.7 229.0Q516.2 230.0 515.3 230.6Q514.4 231.2 513.2 231.2ZM513.2 230.0L513.2 230.0Q514.1 230.0 514.7 229.5Q515.3 229.0 515.6 228.3Q515.8 227.5 515.8 226.7L515.8 226.7Q515.8 225.8 515.6 225.0Q515.3 224.3 514.7 223.8Q514.1 223.3 513.2 223.3L513.2 223.3Q512.3 223.3 511.8 223.8Q511.2 224.3 510.9 225.0Q510.6 225.8 510.6 226.7L510.6 226.7Q510.6 227.5 510.9 228.3Q511.2 229.0 511.8 229.5Q512.3 230.0 513.2 230.0Z M525.1 231.0L523.7 231.0L523.7 222.2L525.0 222.2L525.0 223.6L525.1 223.6Q525.4 222.9 526.0 222.5Q526.6 222.1 527.4 222.1L527.4 222.1Q527.5 222.1 527.8 222.1Q528.0 222.1 528.1 222.1L528.1 222.1L528.1 223.5Q528.0 223.5 527.8 223.4Q527.5 223.4 527.3 223.4L527.3 223.4Q526.6 223.4 526.1 223.7Q525.6 223.9 525.4 224.4Q525.1 224.9 525.1 225.5L525.1 225.5L525.1 231.0ZM533.1 231.2L533.1 231.2Q531.8 231.2 530.9 230.6Q530.0 230.0 529.5 229.0Q529.0 228.0 529.0 226.7L529.0 226.7Q529.0 225.3 529.5 224.3Q530.0 223.3 530.9 222.7Q531.8 222.1 532.9 222.1L532.9 222.1Q533.6 222.1 534.3 222.4Q534.9 222.6 535.5 223.1Q536.0 223.6 536.4 224.4Q536.7 225.3 536.7 226.5L536.7 226.5L536.7 227.1L530.0 227.1L530.0 225.9L535.3 225.9Q535.3 225.2 535.0 224.6Q534.7 224.0 534.2 223.7Q533.7 223.3 532.9 223.3L532.9 223.3Q532.1 223.3 531.5 223.7Q531.0 224.1 530.7 224.8Q530.3 225.4 530.3 226.1L530.3 226.1L530.3 226.9Q530.3 227.9 530.7 228.6Q531.0 229.2 531.6 229.6Q532.3 230.0 533.1 230.0L533.1 230.0Q533.6 230.0 534.0 229.8Q534.5 229.7 534.8 229.3Q535.1 229.0 535.3 228.6L535.3 228.6L536.5 229.0Q536.3 229.6 535.9 230.1Q535.4 230.6 534.7 230.9Q534.0 231.2 533.1 231.2ZM541.3 231.2L541.3 231.2Q540.5 231.2 539.8 230.9Q539.1 230.5 538.7 230.0Q538.3 229.4 538.3 228.5L538.3 228.5Q538.3 227.7 538.6 227.3Q538.9 226.8 539.4 226.5Q539.9 226.3 540.5 226.1Q541.1 226.0 541.7 225.9L541.7 225.9Q542.5 225.8 543.0 225.8Q543.5 225.7 543.7 225.6Q544.0 225.5 544.0 225.1L544.0 225.1L544.0 225.1Q544.0 224.2 543.5 223.8Q543.0 223.3 542.1 223.3L542.1 223.3Q541.2 223.3 540.6 223.7Q540.1 224.2 539.8 224.6L539.8 224.6L538.6 224.2Q538.9 223.4 539.5 222.9Q540.1 222.5 540.7 222.3Q541.4 222.1 542.1 222.1L542.1 222.1Q542.5 222.1 543.0 222.2Q543.6 222.3 544.1 222.6Q544.6 222.9 545.0 223.6Q545.3 224.2 545.3 225.2L545.3 225.2L545.3 231.0L544.0 231.0L544.0 229.8L543.9 229.8Q543.8 230.1 543.4 230.4Q543.1 230.7 542.6 231.0Q542.1 231.2 541.3 231.2ZM541.5 230.0L541.5 230.0Q542.3 230.0 542.8 229.7Q543.4 229.4 543.7 228.9Q544.0 228.4 544.0 227.8L544.0 227.8L544.0 226.6Q543.9 226.7 543.6 226.8Q543.3 226.9 542.9 226.9Q542.6 227.0 542.2 227.0Q541.9 227.1 541.6 227.1L541.6 227.1Q541.1 227.2 540.7 227.3Q540.2 227.5 539.9 227.8Q539.7 228.1 539.7 228.6L539.7 228.6Q539.7 229.3 540.2 229.6Q540.7 230.0 541.5 230.0ZM551.0 231.2L551.0 231.2Q550.0 231.2 549.1 230.6Q548.3 230.0 547.8 229.0Q547.3 228.0 547.3 226.6L547.3 226.6Q547.3 225.3 547.8 224.2Q548.3 223.2 549.1 222.7Q550.0 222.1 551.1 222.1L551.1 222.1Q551.9 222.1 552.4 222.4Q552.9 222.7 553.2 223.1Q553.4 223.4 553.6 223.6L553.6 223.6L553.7 223.6L553.7 219.3L555.0 219.3L555.0 231.0L553.8 231.0L553.8 229.6L553.6 229.6Q553.4 229.9 553.2 230.2Q552.9 230.6 552.4 230.9Q551.9 231.2 551.0 231.2ZM551.2 230.0L551.2 230.0Q552.0 230.0 552.6 229.5Q553.1 229.1 553.4 228.4Q553.7 227.6 553.7 226.6L553.7 226.6Q553.7 225.6 553.4 224.9Q553.2 224.2 552.6 223.8Q552.0 223.3 551.2 223.3L551.2 223.3Q550.4 223.3 549.8 223.8Q549.2 224.2 549.0 225.0Q548.7 225.7 548.7 226.6L548.7 226.6Q548.7 227.5 549.0 228.3Q549.3 229.1 549.8 229.5Q550.4 230.0 551.2 230.0ZM558.7 231.1L558.7 231.1Q558.2 231.1 557.9 230.8Q557.6 230.5 557.6 230.0L557.6 230.0Q557.6 229.6 557.9 229.3Q558.2 229.0 558.7 229.0L558.7 229.0Q559.1 229.0 559.4 229.3Q559.7 229.6 559.7 230.0L559.7 230.0Q559.7 230.3 559.5 230.6Q559.4 230.8 559.2 230.9Q558.9 231.1 558.7 231.1Z "/><rect x="357" y="365" width="86" height="15" fill="#F9F9F9"/><path fill="#CCCCCC" d="M363.4 376.2L357.9 376.2L357.9 375.5L360.8 372.3Q361.3 371.8 361.6 371.3Q361.9 370.9 362.1 370.6Q362.3 370.2 362.3 369.8L362.3 369.8Q362.3 369.3 362.0 369.0Q361.8 368.7 361.4 368.5Q361.1 368.3 360.6 368.3L360.6 368.3Q360.1 368.3 359.7 368.5Q359.3 368.7 359.1 369.1Q358.9 369.5 358.9 370.0L358.9 370.0L357.9 370.0Q357.9 369.2 358.3 368.6Q358.6 368.0 359.3 367.7Q359.9 367.4 360.6 367.4L360.6 367.4Q361.4 367.4 362.0 367.7Q362.6 368.0 362.9 368.6Q363.3 369.1 363.3 369.8L363.3 369.8Q363.3 370.3 363.1 370.7Q362.9 371.2 362.5 371.8Q362.1 372.3 361.3 373.1L361.3 373.1L359.4 375.2L359.4 375.3L363.4 375.3L363.4 376.2ZM368.0 376.4L368.0 376.4Q367.0 376.4 366.4 375.8Q365.7 375.3 365.3 374.3Q365.0 373.3 365.0 371.9L365.0 371.9Q365.0 370.5 365.3 369.5Q365.7 368.4 366.4 367.9Q367.1 367.4 368.0 367.4L368.0 367.4Q369.0 367.4 369.6 367.9Q370.3 368.4 370.7 369.5Q371.0 370.5 371.0 371.9L371.0 371.9Q371.0 373.3 370.7 374.3Q370.3 375.3 369.7 375.8Q369.0 376.4 368.0 376.4ZM368.0 375.4L368.0 375.4Q369.0 375.4 369.5 374.5Q370.0 373.6 370.0 371.9L370.0 371.9Q370.0 370.7 369.8 369.9Q369.5 369.1 369.1 368.7Q368.6 368.3 368.0 368.3L368.0 368.3Q367.1 368.3 366.5 369.2Q366 370.2 366 371.9L366 371.9Q366 373.0 366.2 373.8Q366.5 374.6 366.9 375.0Q367.4 375.4 368.0 375.4ZM378.2 376.2L372.7 376.2L372.7 375.5L375.5 372.3Q376.1 371.8 376.4 371.3Q376.7 370.9 376.9 370.6Q377.0 370.2 377.0 369.8L377.0 369.8Q377.0 369.3 376.8 369.0Q376.6 368.7 376.2 368.5Q375.8 368.3 375.4 368.3L375.4 368.3Q374.9 368.3 374.5 368.5Q374.1 368.7 373.9 369.1Q373.7 369.5 373.7 370.0L373.7 370.0L372.7 370.0Q372.7 369.2 373.1 368.6Q373.4 368.0 374.0 367.7Q374.6 367.4 375.4 367.4L375.4 367.4Q376.2 367.4 376.8 367.7Q377.3 368.0 377.7 368.6Q378.0 369.1 378.0 369.8L378.0 369.8Q378.0 370.3 377.8 370.7Q377.7 371.2 377.2 371.8Q376.8 372.3 376.1 373.1L376.1 373.1L374.1 375.2L374.1 375.3L378.2 375.3L378.2 376.2ZM382.9 376.4L382.9 376.4Q382.0 376.4 381.4 376.1Q380.7 375.8 380.3 375.3Q379.9 374.7 379.9 374.1L379.9 374.1L381.0 374.1Q381.0 374.5 381.3 374.8Q381.5 375.1 381.9 375.2Q382.4 375.4 382.9 375.4L382.9 375.4Q383.4 375.4 383.9 375.2Q384.3 375.0 384.5 374.7Q384.8 374.3 384.8 373.9L384.8 373.9Q384.8 373.4 384.5 373.0Q384.3 372.6 383.8 372.4Q383.4 372.2 382.7 372.2L382.7 372.2L382.0 372.2L382.0 371.3L382.7 371.3Q383.2 371.3 383.6 371.1Q384.0 370.9 384.3 370.6Q384.5 370.2 384.5 369.8L384.5 369.8Q384.5 369.3 384.3 369.0Q384.1 368.7 383.7 368.5Q383.4 368.3 382.9 368.3L382.9 368.3Q382.4 368.3 382.0 368.5Q381.6 368.6 381.4 368.9Q381.1 369.3 381.1 369.7L381.1 369.7L380.1 369.7Q380.1 369.0 380.5 368.5Q380.9 368.0 381.5 367.7Q382.2 367.4 382.9 367.4L382.9 367.4Q383.7 367.4 384.3 367.7Q384.9 368.0 385.2 368.6Q385.5 369.1 385.5 369.7L385.5 369.7Q385.5 370.5 385.1 371.0Q384.7 371.5 384.1 371.7L384.1 371.7L384.1 371.8Q384.9 371.9 385.4 372.5Q385.8 373.0 385.8 373.9L385.8 373.9Q385.8 374.6 385.4 375.1Q385.1 375.7 384.4 376.0Q383.7 376.4 382.9 376.4Z M394.2 376.2L391.1 376.2L391.1 367.5L394.1 367.5Q395.1 367.5 395.6 367.8Q396.2 368.1 396.5 368.7Q396.8 369.2 396.8 369.8L396.8 369.8Q396.8 370.4 396.6 370.8Q396.4 371.1 396.1 371.3Q395.8 371.5 395.4 371.6L395.4 371.6L395.4 371.7Q395.8 371.8 396.2 372.0Q396.6 372.3 396.9 372.7Q397.2 373.2 397.2 373.9L397.2 373.9Q397.2 374.6 396.9 375.1Q396.6 375.6 395.9 375.9Q395.3 376.2 394.2 376.2L394.2 376.2ZM392.1 372.3L392.1 375.3L394.2 375.3Q395.3 375.3 395.7 374.9Q396.2 374.5 396.2 373.9L396.2 373.9Q396.2 373.5 395.9 373.1Q395.7 372.7 395.3 372.5Q394.9 372.3 394.3 372.3L394.3 372.3L392.1 372.3ZM392.1 368.4L392.1 371.3L394.1 371.3Q394.6 371.3 395.0 371.2Q395.4 371.0 395.6 370.6Q395.8 370.3 395.8 369.8L395.8 369.8Q395.8 369.2 395.4 368.8Q395.0 368.4 394.1 368.4L394.1 368.4L392.1 368.4ZM401.4 376.4L401.4 376.4Q400.5 376.4 399.9 375.9Q399.2 375.5 398.8 374.8Q398.5 374.0 398.5 373.0L398.5 373.0Q398.5 372.0 398.8 371.2Q399.2 370.4 399.9 370.0Q400.5 369.6 401.4 369.6L401.4 369.6Q402.3 369.6 403.0 370.0Q403.6 370.4 404.0 371.2Q404.4 372.0 404.4 373.0L404.4 373.0Q404.4 374.0 404.0 374.8Q403.6 375.5 403.0 375.9Q402.3 376.4 401.4 376.4ZM401.4 375.5L401.4 375.5Q402.1 375.5 402.5 375.1Q403.0 374.8 403.2 374.2Q403.4 373.6 403.4 373.0L403.4 373.0Q403.4 372.3 403.2 371.8Q403.0 371.2 402.5 370.9Q402.1 370.5 401.4 370.5L401.4 370.5Q400.7 370.5 400.3 370.9Q399.9 371.2 399.7 371.8Q399.5 372.3 399.5 373.0L399.5 373.0Q399.5 373.6 399.7 374.2Q399.9 374.8 400.3 375.1Q400.7 375.5 401.4 375.5ZM407.0 376.2L406.1 376.2L406.1 367.5L407.1 367.5L407.1 370.7L407.1 370.7Q407.3 370.6 407.5 370.3Q407.7 370.0 408.0 369.8Q408.4 369.6 409.0 369.6L409.0 369.6Q409.9 369.6 410.5 370.0Q411.1 370.4 411.5 371.2Q411.8 371.9 411.8 373.0L411.8 373.0Q411.8 374.0 411.5 374.8Q411.1 375.5 410.5 376.0Q409.9 376.4 409.1 376.4L409.1 376.4Q408.4 376.4 408.0 376.2Q407.7 375.9 407.5 375.7Q407.3 375.4 407.1 375.2L407.1 375.2L407.0 375.2L407.0 376.2ZM407.0 373.0L407.0 373.0Q407.0 373.7 407.3 374.3Q407.5 374.8 407.9 375.1Q408.3 375.5 408.9 375.5L408.9 375.5Q409.6 375.5 410.0 375.1Q410.4 374.8 410.6 374.2Q410.8 373.7 410.8 373.0L410.8 373.0Q410.8 372.3 410.6 371.7Q410.4 371.2 410.0 370.8Q409.6 370.5 408.9 370.5L408.9 370.5Q408.3 370.5 407.9 370.8Q407.5 371.1 407.3 371.7Q407.0 372.2 407.0 373.0ZM414.9 372.6L411.7 367.5L412.9 367.5L415.4 371.6L415.5 371.6L417.9 367.5L419.1 367.5L415.9 372.6L415.9 376.2L414.9 376.2L414.9 372.6ZM421.4 376.4L421.4 376.4Q420.8 376.4 420.3 376.1Q419.8 375.9 419.5 375.5Q419.2 375.0 419.2 374.4L419.2 374.4Q419.2 373.8 419.4 373.5Q419.6 373.1 420.0 372.9Q420.3 372.7 420.8 372.6Q421.2 372.5 421.7 372.4L421.7 372.4Q422.3 372.4 422.7 372.3Q423.0 372.3 423.2 372.2Q423.4 372.1 423.4 371.9L423.4 371.9L423.4 371.8Q423.4 371.2 423.0 370.8Q422.7 370.5 422.0 370.5L422.0 370.5Q421.3 370.5 420.9 370.8Q420.5 371.1 420.3 371.5L420.3 371.5L419.4 371.1Q419.6 370.5 420.0 370.2Q420.5 369.9 421.0 369.7Q421.5 369.6 422.0 369.6L422.0 369.6Q422.3 369.6 422.7 369.7Q423.1 369.8 423.5 370.0Q423.9 370.2 424.1 370.7Q424.4 371.1 424.4 371.9L424.4 371.9L424.4 376.2L423.4 376.2L423.4 375.3L423.3 375.3Q423.2 375.6 423.0 375.8Q422.8 376.0 422.4 376.2Q422.0 376.4 421.4 376.4ZM421.6 375.5L421.6 375.5Q422.1 375.5 422.6 375.2Q423.0 375.0 423.2 374.6Q423.4 374.3 423.4 373.9L423.4 373.9L423.4 372.9Q423.3 373.0 423.1 373.1Q422.9 373.1 422.6 373.2Q422.3 373.2 422.1 373.3Q421.8 373.3 421.7 373.3L421.7 373.3Q421.3 373.4 420.9 373.5Q420.6 373.6 420.4 373.8Q420.2 374.0 420.2 374.4L420.2 374.4Q420.2 374.9 420.6 375.2Q421.0 375.5 421.6 375.5ZM427.2 372.3L427.2 372.3L427.2 376.2L426.2 376.2L426.2 369.7L427.2 369.7L427.2 370.7L427.3 370.7Q427.5 370.2 428.0 369.9Q428.5 369.6 429.2 369.6L429.2 369.6Q429.9 369.6 430.4 369.9Q430.9 370.1 431.1 370.7Q431.4 371.2 431.4 372.1L431.4 372.1L431.4 376.2L430.4 376.2L430.4 372.1Q430.4 371.4 430.0 370.9Q429.6 370.5 428.9 370.5L428.9 370.5Q428.4 370.5 428.1 370.7Q427.7 370.9 427.5 371.3Q427.2 371.7 427.2 372.3ZM435.9 378.8L435.9 378.8Q435.2 378.8 434.7 378.6Q434.1 378.5 433.8 378.2Q433.4 377.9 433.2 377.5L433.2 377.5L434.0 376.9Q434.2 377.1 434.4 377.4Q434.6 377.6 434.9 377.8Q435.3 377.9 435.9 377.9L435.9 377.9Q436.7 377.9 437.2 377.6Q437.7 377.2 437.7 376.4L437.7 376.4L437.7 375.0L437.6 375.0Q437.5 375.2 437.3 375.5Q437.1 375.7 436.7 375.9Q436.4 376.1 435.7 376.1L435.7 376.1Q434.9 376.1 434.3 375.8Q433.7 375.4 433.3 374.7Q433.0 373.9 433.0 372.9L433.0 372.9Q433.0 371.9 433.3 371.2Q433.7 370.4 434.3 370.0Q434.9 369.6 435.8 369.6L435.8 369.6Q436.4 369.6 436.8 369.8Q437.1 370.0 437.3 370.3Q437.5 370.6 437.7 370.7L437.7 370.7L437.8 370.7L437.8 369.7L438.7 369.7L438.7 376.4Q438.7 377.3 438.4 377.8Q438.0 378.3 437.3 378.6Q436.7 378.8 435.9 378.8ZM435.9 375.2L435.9 375.2Q436.5 375.2 436.9 374.9Q437.3 374.7 437.5 374.2Q437.7 373.6 437.7 372.9L437.7 372.9Q437.7 372.2 437.5 371.7Q437.3 371.1 436.9 370.8Q436.5 370.5 435.9 370.5L435.9 370.5Q435.2 370.5 434.8 370.8Q434.4 371.2 434.2 371.7Q434.0 372.2 434.0 372.9L434.0 372.9Q434.0 373.6 434.2 374.1Q434.4 374.6 434.8 374.9Q435.2 375.2 435.9 375.2ZM441.3 376.3L441.3 376.3Q441.0 376.3 440.8 376.1Q440.5 375.8 440.5 375.5L440.5 375.5Q440.5 375.2 440.8 375.0Q441.0 374.8 441.3 374.8L441.3 374.8Q441.6 374.8 441.8 375.0Q442.1 375.2 442.1 375.5L442.1 375.5Q442.1 375.7 442.0 375.9Q441.9 376.1 441.7 376.2Q441.5 376.3 441.3 376.3Z "/></svg>